# xmcd CD database file
#
# Track frame offsets:
#	180
#	14713
#	35083
#	51264
#	70337
#	84195
#	100715
#	113536
#	129578
#	142658
#	158649
#
# Disc length: 2286 seconds
#
# Revision: 1
# Processed by: cddbd v1.5.2PL0 Copyright (c) Steve Scherf et al.
# Submitted via: jetAudio 7
#
DISCID=8708ec0b
DTITLE=Limite y Caballo Dorado - El Baile Del Millón
DYEAR=1998
DGENRE=Grupera
TTITLE0=[1]  Esto Que Siento
TTITLE1=[2] Un Chico Loco
TTITLE2=[3]  Me Ire De Aqui
TTITLE3=[4]  Payaso De Rodeo
TTITLE4=[5]  Vete
TTITLE5=[6]  No Rompas Mi Corazón
TTITLE6=[7]  Mirame
TTITLE7=[8]  Solo Contigo
TTITLE8=[9]  Para Ser Feliz
TTITLE9=[10]  Hoy Hare
TTITLE10=[11]  Estoy Aqui
EXTD=
EXTT0=
EXTT1=
EXTT2=
EXTT3=
EXTT4=
EXTT5=
EXTT6=
EXTT7=
EXTT8=
EXTT9=
EXTT10=
PLAYORDER=
